<?xml version="1.0" standalone="no"?>
<!DOCTYPE svg PUBLIC "-//W3C//DTD SVG 20010904//EN"
 "http://www.w3.org/TR/2001/REC-SVG-20010904/DTD/svg10.dtd">
<svg version="1.0" xmlns="http://www.w3.org/2000/svg"
 width="785.000000pt" height="870.000000pt" viewBox="0 0 785.000000 870.000000"
 preserveAspectRatio="xMidYMid meet">

<g transform="translate(0.000000,870.000000) scale(0.100000,-0.100000)"
fill="#000000" stroke="none">
<path d="M5221 7564 c0 -11 3 -14 6 -6 3 7 2 16 -1 19 -3 4 -6 -2 -5 -13z"/>
<path d="M5377 7548 c-10 -11 -16 -23 -12 -26 3 -4 9 -2 13 4 4 6 15 13 25 17
9 3 17 11 17 17 0 16 -23 10 -43 -12z"/>
<path d="M4540 7520 c-16 -38 -1 -62 25 -40 19 16 20 44 1 59 -11 9 -16 5 -26
-19z"/>
<path d="M4831 7511 c-15 -27 -14 -46 3 -60 11 -10 15 -4 18 29 4 46 -6 61
-21 31z"/>
<path d="M4730 7510 c0 -5 9 -10 20 -10 11 0 20 5 20 10 0 6 -9 10 -20 10 -11
0 -20 -4 -20 -10z"/>
<path d="M5070 7510 c0 -5 7 -10 15 -10 8 0 15 5 15 10 0 6 -7 10 -15 10 -8 0
-15 -4 -15 -10z"/>
<path d="M4627 7470 c-6 -22 10 -38 23 -24 5 5 3 17 -4 27 -13 16 -14 16 -19
-3z"/>
<path d="M4688 7433 c7 -3 16 -2 19 1 4 3 -2 6 -13 5 -11 0 -14 -3 -6 -6z"/>
<path d="M4550 7376 c0 -14 5 -26 10 -26 6 0 10 9 10 19 0 11 -4 23 -10 26 -6
4 -10 -5 -10 -19z"/>
<path d="M4892 7380 c-9 -14 -21 -20 -39 -18 -34 4 -45 -27 -13 -37 30 -9 70
19 70 50 0 30 -2 31 -18 5z"/>
<path d="M4626 7350 c-5 -13 -15 -30 -22 -37 -13 -13 -9 -43 6 -43 13 0 32 56
28 82 l-4 23 -8 -25z"/>
<path d="M5120 7305 c-10 -12 -10 -15 4 -15 9 0 16 7 16 15 0 8 -2 15 -4 15
-2 0 -9 -7 -16 -15z"/>
<path d="M5215 7310 c-4 -6 -3 -16 3 -22 6 -6 12 -6 17 2 4 6 3 16 -3 22 -6 6
-12 6 -17 -2z"/>
<path d="M5573 7293 c-22 -23 -31 -53 -15 -53 4 0 19 15 34 34 32 40 16 55
-19 19z"/>
<path d="M4693 7284 c-27 -30 -29 -52 -8 -60 8 -4 15 -12 15 -20 0 -21 44 -17
64 5 18 20 19 53 1 51 -5 -1 -9 -12 -8 -26 2 -21 -2 -25 -20 -22 -23 3 -25 15
-11 71 8 34 -4 34 -33 1z"/>
<path d="M4887 7275 c-15 -14 -40 -25 -54 -25 -23 0 -25 -3 -20 -32 4 -32 -9
-78 -23 -78 -4 0 -10 -12 -14 -27 -4 -21 -18 -34 -56 -52 -34 -17 -49 -29 -45
-39 3 -7 5 -22 5 -33 0 -10 9 -28 20 -39 28 -28 17 -74 -26 -108 -19 -15 -34
-36 -35 -47 0 -17 -2 -17 -12 5 -6 14 -12 26 -13 28 -1 1 -13 -3 -28 -9 -19
-9 -25 -17 -20 -28 9 -21 9 -38 0 -82 -6 -28 -4 -40 9 -53 16 -15 19 -15 41
-1 24 15 24 15 24 -26 0 -25 8 -52 20 -69 l20 -29 -45 -37 c-25 -21 -45 -45
-45 -54 0 -18 -84 -110 -99 -110 -6 0 -17 -10 -25 -22 -15 -22 -17 -22 -45 -5
-36 21 -55 15 -82 -29 -23 -37 -34 -42 -43 -18 -10 25 -7 92 4 99 6 3 10 25
10 48 -1 41 -1 42 -15 17 l-13 -25 -11 27 c-6 17 -7 38 0 60 6 22 6 42 -2 61
-17 39 -33 34 -25 -9 5 -26 2 -43 -10 -62 -9 -14 -19 -40 -21 -57 -1 -16 -12
-51 -23 -76 -15 -35 -18 -57 -12 -89 10 -57 26 -60 46 -10 20 51 36 44 36 -16
0 -31 -7 -56 -25 -81 -16 -25 -21 -41 -16 -52 11 -20 -1 -93 -14 -89 -5 2 -9
18 -7 36 2 27 -1 32 -18 32 -17 0 -20 6 -20 38 0 68 -51 91 -95 42 -14 -15
-15 -23 -6 -34 8 -10 10 -37 5 -89 -6 -65 -9 -76 -28 -81 -16 -4 -18 -8 -8
-18 6 -6 12 -22 12 -35 0 -16 11 -28 39 -43 22 -11 42 -24 46 -30 14 -23 37
-7 59 43 22 50 47 74 66 62 9 -6 -25 -81 -51 -110 -9 -11 -19 -29 -21 -40 -4
-18 -7 -17 -33 13 -16 17 -38 32 -48 32 -9 0 -20 7 -23 15 -4 8 -18 15 -33 15
-31 1 -67 25 -52 35 7 4 6 16 -5 36 -10 20 -12 34 -6 42 15 18 19 60 6 64 -12
4 -48 -63 -59 -110 -6 -24 -10 -25 -103 -30 -122 -6 -179 -18 -267 -53 -146
-59 -267 -178 -311 -308 -25 -72 -15 -230 20 -315 36 -91 140 -191 184 -177
17 6 103 -38 147 -74 10 -8 30 -10 60 -5 43 6 47 4 77 -29 37 -43 56 -45 88
-11 13 14 29 25 36 25 6 0 15 8 18 17 5 12 9 14 18 5 22 -22 60 -12 116 31 65
49 89 60 98 46 7 -12 40 -2 64 19 35 33 66 54 96 68 34 14 84 88 84 122 0 31
11 52 26 52 8 0 14 6 14 14 0 21 20 30 33 17 15 -15 27 -14 27 4 0 8 -5 15
-10 15 -6 0 -5 8 2 20 13 20 13 20 18 -2 7 -26 55 -44 93 -34 13 3 37 22 52
42 l27 35 -20 22 c-23 26 -19 47 9 47 13 0 21 9 25 28 8 37 36 70 68 78 14 3
26 13 26 20 0 8 7 17 15 21 9 3 15 13 13 22 -1 9 5 27 15 41 9 13 17 30 17 37
0 7 9 17 20 23 21 11 27 35 10 45 -13 8 -90 -69 -90 -91 0 -13 -14 -25 -41
-36 -37 -16 -41 -20 -35 -44 6 -23 4 -26 -13 -21 -14 3 -21 -1 -25 -16 -8 -32
-23 -10 -28 40 -3 41 -3 42 25 40 37 -3 57 24 38 47 -12 14 -17 15 -35 3 -12
-7 -29 -17 -39 -20 -16 -6 -18 -3 -12 24 l7 32 -36 -7 c-30 -6 -35 -4 -30 9 3
8 9 15 13 15 14 0 101 130 101 150 0 14 7 20 23 20 28 0 53 25 62 63 5 19 13
27 30 27 24 0 35 17 35 52 0 12 7 26 17 33 18 13 10 35 -13 35 -8 0 -14 10
-14 23 0 17 -2 19 -9 8 -6 -9 -6 -22 -1 -32 13 -23 -11 -69 -50 -98 -17 -12
-36 -33 -42 -46 -6 -14 -21 -25 -36 -27 -20 -2 -28 -11 -34 -35 -9 -35 -28
-42 -48 -18 -7 8 -19 15 -26 15 -26 0 -14 25 16 37 17 6 34 23 40 37 5 14 16
26 24 26 13 0 26 20 26 42 0 21 -45 3 -48 -19 -2 -14 -10 -23 -21 -23 -21 0
-36 -16 -45 -45 -3 -11 -3 2 -1 29 5 53 26 94 47 93 38 -1 45 4 46 36 2 46 -7
67 -28 67 -24 0 -86 -70 -94 -107 -4 -16 -16 -33 -29 -38 -14 -6 -21 -18 -20
-30 4 -34 -8 -75 -22 -75 -16 0 -13 94 5 115 6 8 9 23 6 33 -9 27 4 54 22 47
13 -5 14 3 8 50 -6 53 -5 55 17 55 14 0 32 12 45 30 13 17 28 30 35 30 18 0
67 48 67 65 0 18 14 19 41 5 11 -6 19 -21 19 -35 0 -13 4 -27 10 -30 14 -8 50
13 50 30 0 23 22 29 36 11 8 -12 14 -14 19 -6 4 7 18 9 33 5 39 -10 57 41 30
85 -11 16 -9 23 14 47 14 15 34 46 45 68 13 28 26 41 44 45 31 6 102 66 97 82
-3 7 -10 5 -20 -6 -9 -9 -29 -16 -43 -16 -24 0 -26 3 -21 25 5 18 2 25 -9 25
-8 0 -15 -4 -15 -10 0 -5 -5 -10 -11 -10 -6 0 -8 8 -4 19 11 34 -12 32 -51 -6
-27 -25 -38 -43 -36 -60 2 -12 -1 -23 -7 -23 -7 0 -17 -12 -24 -27 -18 -43
-47 -58 -47 -26 0 16 -1 16 -17 0 -16 -15 -16 -18 2 -37 21 -23 20 -26 -17
-35 -34 -9 -47 15 -28 51 11 20 11 28 0 49 -11 20 -11 27 0 40 16 19 49 19 56
0 11 -26 30 -16 49 25 14 30 15 44 7 52 -8 8 -15 8 -27 -2 -13 -11 -15 -8 -15
25 0 37 1 38 19 21 19 -17 22 -17 71 10 28 15 56 36 61 46 5 10 17 18 27 18
15 0 42 40 42 63 0 5 10 17 23 28 12 10 17 18 10 19 -11 0 -56 -36 -107 -86
-25 -24 -97 -67 -103 -61 -9 10 34 68 55 73 12 4 22 11 22 18 0 6 14 26 30 45
35 40 36 43 11 65 -11 10 -17 25 -14 37 3 10 0 19 -6 19 -6 0 -11 -13 -11 -30
0 -23 -7 -33 -30 -45 -16 -9 -30 -21 -30 -28 0 -23 -22 -38 -37 -26 -18 15
-17 39 2 39 8 0 17 11 21 25 3 13 12 29 20 36 8 6 14 27 14 46 0 26 8 42 31
64 31 29 31 49 1 49 -12 0 -10 4 7 13 34 17 48 43 35 64 -16 25 -26 25 -57 -2z
m43 -589 c0 -3 -4 -8 -10 -11 -5 -3 -10 -1 -10 4 0 6 5 11 10 11 6 0 10 -2 10
-4z m-30 -47 c0 -18 -2 -19 -15 -9 -15 12 -12 30 6 30 5 0 9 -10 9 -21z m-173
-225 c-3 -3 -12 -4 -19 -1 -8 3 -5 6 6 6 11 1 17 -2 13 -5z m-363 -323 c7 -11
-22 -23 -35 -15 -5 3 -7 10 -4 15 8 12 32 12 39 0z m-56 -70 c12 -10 14 -15 5
-18 -15 -5 -18 -43 -4 -43 5 0 12 6 14 13 3 6 6 0 6 -15 1 -33 -14 -35 -48 -8
-21 18 -22 23 -11 50 7 16 10 37 6 46 -3 9 -3 21 1 27 5 8 9 2 11 -13 2 -14
11 -31 20 -39z m-168 -78 c-4 -17 -5 -43 -3 -57 3 -15 1 -26 -5 -26 -19 0 -25
87 -11 153 l14 62 6 -50 c3 -28 2 -64 -1 -82z m360 -37 c0 -8 9 -18 20 -21 21
-7 28 -35 10 -35 -18 0 -63 47 -56 59 10 16 26 14 26 -3z m-166 -64 c-1 -7 -2
-21 -2 -32 -3 -34 -17 -22 -18 15 0 21 4 34 10 32 6 -2 11 -9 10 -15z m84 -69
c-4 -22 -38 -30 -38 -10 0 14 13 24 33 26 5 1 7 -7 5 -16z m-108 -23 c0 -28
-2 -29 -20 -18 -29 18 -25 48 7 48 8 0 13 -12 13 -30z m-62 -28 c2 -12 -1 -22
-6 -22 -15 0 -34 28 -27 40 10 17 30 6 33 -18z m42 -47 c0 -8 -7 -15 -15 -15
-8 0 -15 7 -15 15 0 8 7 15 15 15 8 0 15 -7 15 -15z m164 -11 c9 -3 16 -13 16
-21 0 -10 -6 -13 -16 -9 -9 3 -18 6 -20 6 -2 0 -4 7 -4 15 0 17 2 18 24 9z
m-64 -69 c0 -15 -6 -25 -14 -25 -16 0 -25 19 -18 38 8 22 32 13 32 -13z m-270
-525 c0 -5 -5 -10 -11 -10 -5 0 -7 5 -4 10 3 6 8 10 11 10 2 0 4 -4 4 -10z"/>
<path d="M5071 7254 c0 -11 3 -14 6 -6 3 7 2 16 -1 19 -3 4 -6 -2 -5 -13z"/>
<path d="M5327 7263 c-13 -12 -7 -33 8 -33 8 0 15 9 15 20 0 20 -11 26 -23 13z"/>
<path d="M4626 7180 c-8 -44 -7 -92 2 -107 6 -9 18 1 40 32 18 25 32 50 32 56
0 5 -12 15 -27 22 -16 6 -31 15 -34 20 -3 5 -9 -6 -13 -23z"/>
<path d="M5216 7194 c-4 -9 -3 -21 2 -26 12 -12 23 15 12 31 -5 9 -9 8 -14 -5z"/>
<path d="M5152 7118 c-17 -17 -15 -38 3 -38 9 0 15 9 15 25 0 29 -1 30 -18 13z"/>
<path d="M6729 7066 c-101 -27 -166 -129 -108 -169 11 -8 19 -22 17 -31 -3
-16 34 -42 87 -62 17 -6 15 -8 -14 -13 -19 -3 -36 -11 -38 -18 -5 -14 31 -35
55 -32 32 3 42 -1 42 -16 0 -8 8 -20 18 -26 12 -8 17 -20 14 -35 -4 -23 -2
-24 44 -23 68 0 105 17 149 67 37 42 38 46 38 117 0 65 -3 80 -32 127 -36 59
-73 89 -141 112 -53 18 -70 19 -131 2z m145 -50 c35 -14 66 -50 66 -75 0 -21
-65 -7 -111 24 -52 34 -51 56 4 64 4 0 23 -5 41 -13z"/>
<path d="M5212 7038 c-6 -6 -12 -18 -12 -25 0 -7 -16 -19 -35 -27 -38 -16 -54
-41 -37 -58 8 -8 21 -1 45 26 23 25 39 35 51 30 9 -3 23 -1 31 6 18 15 20 30
4 30 -7 0 -17 7 -23 15 -9 13 -14 13 -24 3z"/>
<path d="M5065 7030 c-18 -8 -17 -9 8 -9 15 -1 27 4 27 9 0 12 -8 12 -35 0z"/>
<path d="M887 7012 c-128 -46 -192 -166 -164 -304 8 -39 43 -83 87 -111 35
-22 148 -18 161 6 6 9 17 17 25 17 12 0 14 7 9 30 -5 24 -3 30 10 30 9 0 13 4
10 10 -3 5 0 20 7 32 6 13 12 30 13 38 0 12 11 14 48 12 27 -2 47 1 47 7 0 29
-29 65 -74 91 -78 46 -100 65 -93 84 4 11 18 16 43 16 32 0 44 -7 80 -45 33
-36 43 -42 48 -29 9 25 8 30 -20 64 -50 59 -154 82 -237 52z"/>
<path d="M4626 6993 c-3 -3 -6 -22 -6 -42 1 -34 2 -35 15 -17 8 11 15 28 15
37 0 20 -14 32 -24 22z"/>
<path d="M5360 6980 c-8 -5 -11 -12 -8 -16 10 -9 38 3 38 16 0 12 -10 13 -30
0z"/>
<path d="M4570 6903 c0 -11 7 -24 16 -27 27 -10 30 3 6 27 l-22 21 0 -21z"/>
<path d="M5084 6875 c-4 -9 -3 -19 0 -23 9 -8 42 12 39 24 -4 16 -33 16 -39
-1z"/>
<path d="M3936 6655 c-3 -8 -1 -15 4 -15 6 0 10 7 10 15 0 8 -2 15 -4 15 -2 0
-6 -7 -10 -15z"/>
<path d="M5095 6633 c-19 -20 -35 -40 -35 -45 0 -4 -8 -8 -17 -8 -24 -1 -57
-46 -41 -56 7 -4 38 22 80 66 37 39 68 74 68 76 0 13 -24 -1 -55 -33z"/>
<path d="M4174 6525 c-4 -15 -2 -31 5 -38 14 -14 21 -6 24 28 3 36 -20 44 -29
10z"/>
<path d="M4334 6505 c-9 -21 3 -45 21 -45 10 0 15 10 15 30 0 32 -26 43 -36
15z"/>
<path d="M5065 6490 c4 -6 11 -8 16 -5 14 9 11 15 -7 15 -8 0 -12 -5 -9 -10z"/>
<path d="M4457 6423 c-12 -21 -17 -72 -8 -78 7 -4 11 4 11 20 0 14 7 28 15 31
19 8 20 34 1 34 -8 0 -17 -3 -19 -7z"/>
<path d="M3817 6393 c-10 -10 -8 -51 3 -58 13 -8 25 44 13 56 -5 5 -12 6 -16
2z"/>
<path d="M3970 6384 c0 -9 11 -27 24 -39 23 -21 25 -21 29 -4 6 22 -19 59 -39
59 -8 0 -14 -7 -14 -16z"/>
<path d="M5048 6319 c-29 -28 -36 -49 -18 -49 6 0 15 11 20 24 5 13 14 26 21
28 7 2 10 9 8 15 -2 6 -16 -2 -31 -18z"/>
<path d="M4762 6310 c0 -14 2 -19 5 -12 2 6 2 18 0 25 -3 6 -5 1 -5 -13z"/>
<path d="M3962 6312 c-7 -5 -16 -34 -19 -65 -5 -48 -3 -57 10 -57 24 0 47 40
50 86 2 40 -13 53 -41 36z"/>
<path d="M4915 6280 c3 -5 8 -10 11 -10 2 0 4 5 4 10 0 6 -5 10 -11 10 -5 0
-7 -4 -4 -10z"/>
<path d="M4608 6258 c5 -7 12 -24 14 -38 2 -19 10 -26 31 -28 26 -3 27 -1 27
37 l0 41 -41 0 c-32 0 -39 -3 -31 -12z"/>
<path d="M4760 6261 c0 -5 6 -14 14 -20 10 -9 15 -8 19 3 3 8 3 17 0 20 -9 9
-33 7 -33 -3z"/>
<path d="M4863 6253 c-3 -10 -13 -26 -21 -36 -21 -24 -9 -32 27 -16 24 11 31
20 31 41 0 32 -27 39 -37 11z"/>
<path d="M282 6210 c0 -19 2 -27 5 -17 2 9 2 25 0 35 -3 9 -5 1 -5 -18z"/>
<path d="M3820 6219 c0 -11 4 -18 10 -14 5 3 7 12 3 20 -7 21 -13 19 -13 -6z"/>
<path d="M4130 6223 c0 -5 5 -15 10 -23 8 -12 10 -11 10 8 0 12 -4 22 -10 22
-5 0 -10 -3 -10 -7z"/>
<path d="M460 6178 c0 -22 14 -34 49 -46 19 -7 37 -12 41 -12 11 0 20 39 13
56 -7 18 -103 20 -103 2z"/>
<path d="M4930 6174 c0 -8 5 -12 10 -9 6 3 10 10 10 16 0 5 -4 9 -10 9 -5 0
-10 -7 -10 -16z"/>
<path d="M4010 6155 c0 -8 4 -15 10 -15 5 0 7 7 4 15 -4 8 -8 15 -10 15 -2 0
-4 -7 -4 -15z"/>
<path d="M293 6145 c-20 -22 -16 -52 8 -58 12 -3 19 -11 16 -19 -5 -14 -11
-14 -76 -3 -34 6 -42 4 -39 -6 3 -8 15 -14 29 -14 20 0 24 -5 24 -30 0 -26 -3
-30 -23 -27 -32 5 -62 -34 -60 -77 2 -21 -4 -38 -14 -45 -11 -8 -14 -17 -7
-27 14 -22 11 -34 -17 -62 -14 -14 -24 -31 -22 -39 4 -23 -26 -108 -39 -108
-21 0 -15 -41 7 -47 22 -6 26 -18 9 -29 -6 -3 -8 -17 -5 -30 5 -17 1 -26 -16
-35 -18 -10 -19 -13 -5 -20 14 -8 13 -14 -7 -52 -17 -32 -21 -49 -14 -72 4
-16 6 -36 3 -43 -3 -7 0 -21 6 -30 8 -13 7 -33 -4 -76 -9 -32 -13 -64 -10 -72
3 -8 1 -20 -5 -27 -5 -6 -10 -37 -10 -67 -1 -30 -3 -93 -6 -139 -5 -70 -3 -87
10 -103 16 -17 16 -19 -1 -38 -14 -16 -16 -29 -11 -71 4 -28 12 -59 19 -70 9
-15 9 -21 1 -27 -15 -9 -15 -132 0 -151 8 -11 8 -15 -2 -18 -18 -7 -15 -34 5
-48 15 -11 15 -15 4 -29 -21 -25 -16 -95 8 -120 22 -23 29 -66 11 -66 -20 0
-9 -38 15 -54 28 -18 33 -54 13 -87 -11 -17 -10 -22 6 -34 10 -8 24 -16 30
-18 7 -2 5 -16 -8 -38 -19 -37 -18 -76 2 -71 18 3 26 -26 12 -43 -9 -11 -6
-30 14 -89 14 -41 28 -92 32 -113 4 -21 13 -43 20 -50 9 -9 11 -29 7 -63 -5
-47 -4 -50 26 -67 36 -21 39 -33 11 -40 -25 -7 -26 -23 -2 -23 15 0 52 -46 52
-65 0 -4 -11 -5 -25 -3 -26 5 -31 -1 -16 -18 4 -5 16 -30 26 -56 10 -27 22
-48 27 -48 4 0 13 -11 18 -25 6 -15 17 -25 30 -25 15 0 20 -7 20 -28 0 -22 7
-30 31 -39 24 -9 29 -16 24 -32 -3 -10 -1 -22 5 -26 6 -3 8 -11 5 -16 -7 -10
19 -60 53 -102 12 -16 22 -35 22 -42 0 -7 7 -15 16 -17 10 -2 18 -15 20 -33 3
-27 19 -47 48 -59 7 -3 6 -8 -4 -15 -13 -9 -11 -12 8 -17 16 -5 22 -12 19 -25
-5 -18 24 -51 56 -62 19 -7 22 -22 7 -32 -14 -9 19 -63 42 -71 10 -3 18 -14
18 -24 0 -20 16 -34 40 -35 10 0 14 -9 12 -28 -3 -25 0 -28 17 -22 16 5 20 1
23 -22 2 -16 9 -29 18 -29 8 -1 21 -2 29 -3 9 -1 11 -8 7 -23 -4 -16 2 -30 19
-48 13 -14 37 -39 52 -56 16 -16 36 -33 46 -37 9 -3 17 -12 17 -19 0 -18 48
-68 64 -68 8 0 21 -15 30 -32 8 -18 31 -44 51 -58 19 -14 37 -33 40 -42 3 -9
21 -26 40 -38 19 -12 37 -30 40 -40 5 -15 14 -19 38 -17 l32 2 -3 -47 c-2 -38
2 -52 19 -69 21 -21 21 -23 4 -35 -11 -8 -16 -21 -12 -34 5 -19 2 -21 -19 -16
-13 4 -24 3 -24 -2 0 -5 -21 -24 -48 -42 -26 -19 -48 -38 -50 -42 -8 -19 -75
-77 -83 -72 -5 3 -17 -8 -27 -25 -9 -17 -21 -31 -25 -31 -19 0 -77 -54 -77
-72 0 -35 -20 -57 -60 -68 -22 -6 -44 -8 -49 -6 -5 3 -14 -1 -20 -8 -8 -10 -9
-16 -1 -21 19 -12 10 -33 -16 -39 -21 -6 -25 -11 -21 -32 3 -20 -2 -28 -24
-40 -20 -10 -28 -21 -26 -37 1 -16 -3 -22 -15 -21 -10 1 -18 -4 -18 -12 0 -8
-4 -14 -10 -14 -5 0 -13 -14 -18 -31 -6 -24 -16 -34 -42 -43 -23 -8 -34 -17
-31 -26 10 -38 5 -55 -16 -58 -13 -2 -23 -10 -23 -17 0 -8 -14 -22 -31 -32
-26 -15 -30 -22 -25 -46 5 -22 2 -30 -12 -33 -20 -6 -43 -50 -36 -69 3 -7 -1
-32 -9 -55 -17 -51 -11 -91 15 -98 18 -4 18 -6 2 -23 -15 -17 -16 -22 -3 -45
7 -15 33 -43 56 -64 l43 -38 0 -81 0 -82 35 7 c30 5 35 3 39 -17 3 -13 6 -35
6 -49 0 -14 3 -47 6 -73 6 -45 9 -49 53 -70 l46 -22 955 1 c525 1 1602 2 2392
3 1161 1 1436 3 1432 14 -2 7 14 30 36 52 30 29 40 47 40 71 0 36 22 48 76 45
43 -3 51 15 20 40 -20 16 -26 29 -26 59 0 21 -4 42 -10 45 -5 3 -10 13 -10 22
0 13 8 14 40 9 44 -7 51 4 27 38 -24 33 -9 66 39 86 51 22 63 43 76 129 11 76
12 94 2 138 -10 52 1 77 42 92 26 9 33 16 25 24 -25 25 -8 71 36 96 14 7 17
27 18 108 1 55 5 105 9 111 4 7 5 20 2 30 -4 10 -2 42 4 72 7 38 7 57 -1 66
-9 10 -7 22 5 48 9 19 16 43 16 53 0 30 19 42 56 36 30 -5 34 -3 39 23 10 44
38 96 55 101 8 3 24 9 35 13 11 5 29 10 40 12 13 2 24 16 32 38 6 19 17 34 24
32 31 -8 69 21 80 60 8 33 13 37 25 27 19 -16 54 14 54 48 0 32 32 62 62 56
19 -4 30 4 55 39 18 24 61 68 97 98 35 30 66 64 68 75 1 11 15 26 30 33 15 7
39 28 53 46 26 34 32 52 15 41 -6 -3 -10 -1 -10 5 0 6 11 15 24 20 29 11 46
38 46 74 0 14 5 26 10 26 6 0 10 11 10 25 0 16 -6 25 -15 25 -9 0 -15 -9 -15
-24 0 -16 -5 -23 -15 -22 -25 4 -29 16 -10 30 17 12 17 15 -16 44 -36 34 -69
41 -69 17 0 -8 5 -15 10 -15 6 0 10 -4 10 -10 0 -12 -27 -13 -32 -1 -1 4 -41
6 -86 3 l-84 -5 6 -32 c10 -50 -17 -53 -60 -7 -18 20 -34 41 -34 45 0 15 -63
87 -77 87 -19 0 -16 -13 13 -66 27 -49 25 -59 -18 -69 -31 -8 -68 22 -68 55 0
11 -8 23 -17 27 -10 3 -26 15 -35 27 -24 30 -35 11 -12 -22 33 -44 34 -47 13
-60 -17 -11 -20 -8 -35 25 -12 30 -13 45 -5 74 14 47 14 57 -1 36 -12 -15 -16
-15 -42 -2 -15 8 -32 12 -37 9 -14 -8 -10 -56 6 -84 20 -35 18 -50 -6 -50 -23
0 -43 20 -59 58 -15 36 -61 27 -72 -14 -7 -29 -10 -30 -47 -25 -27 4 -46 15
-61 33 -23 30 -50 37 -50 13 0 -25 -26 -17 -57 18 -16 18 -44 39 -63 47 -19 7
-56 36 -81 62 -51 54 -77 50 -36 -4 27 -36 45 -112 28 -122 -11 -7 -41 43 -41
69 0 16 -8 18 -52 15 -20 -1 -28 3 -28 14 0 19 -29 22 -32 4 -1 -7 -2 -28 -2
-47 -1 -31 -4 -35 -34 -38 -26 -3 -38 2 -61 26 -25 27 -30 29 -41 16 -7 -8
-18 -15 -24 -15 -18 1 -60 44 -81 84 -11 22 -37 52 -57 69 -21 17 -38 36 -38
42 0 6 -11 17 -24 24 -24 14 -66 78 -66 103 0 8 -15 19 -34 25 -31 9 -35 8
-39 -9 -8 -28 -31 -17 -37 18 -4 22 -12 30 -34 34 -33 6 -52 30 -43 54 7 17
17 17 66 -2 11 -4 13 3 9 36 -5 37 -4 41 21 48 14 4 31 6 37 5 7 -1 14 7 17
18 3 13 18 20 53 26 27 4 57 15 67 26 10 10 29 19 42 19 15 0 36 13 55 34 17
18 44 36 59 39 22 5 32 16 45 52 17 43 17 47 1 64 -23 27 -160 91 -215 101
-47 9 -130 56 -130 73 0 5 -7 7 -15 3 -8 -3 -52 15 -97 39 -46 25 -93 45 -105
45 -12 0 -47 20 -77 45 -33 26 -66 45 -80 45 -14 0 -27 4 -30 9 -3 4 -34 14
-68 21 -35 7 -76 21 -92 33 -23 15 -33 17 -47 9 -13 -8 -20 -8 -28 2 -6 7 -7
16 -3 20 4 4 -9 5 -29 1 -25 -5 -46 -2 -67 9 -17 9 -40 16 -50 16 -11 0 -25 7
-32 15 -7 8 -24 15 -39 15 -14 0 -35 7 -45 15 -11 8 -26 15 -33 15 -7 0 -33 9
-56 20 -24 11 -57 20 -73 18 -39 -3 -54 8 -54 38 0 19 -5 24 -18 22 -11 -2
-26 3 -35 11 -14 11 -18 11 -23 -3 -3 -9 -1 -23 6 -31 10 -12 9 -20 -4 -40
-16 -24 -18 -25 -39 -10 -37 26 -48 20 -41 -23 3 -22 1 -64 -6 -95 -14 -69 -7
-105 17 -85 14 12 15 10 8 -17 -4 -16 -7 -59 -6 -93 2 -45 -3 -71 -14 -89 -9
-13 -14 -30 -12 -37 3 -6 -1 -20 -9 -31 -8 -10 -14 -26 -14 -34 -1 -17 -64
-51 -93 -51 -9 0 -17 -4 -17 -10 0 -5 -9 -10 -20 -10 -11 0 -34 -9 -51 -19
-17 -11 -38 -17 -46 -14 -8 3 -28 -4 -45 -17 -28 -21 -34 -21 -69 -10 -36 12
-41 12 -64 -10 -18 -17 -40 -25 -82 -28 -34 -3 -69 -12 -85 -23 -14 -11 -35
-19 -45 -19 -10 0 -29 -7 -41 -16 -16 -11 -31 -14 -50 -8 -15 4 -35 6 -46 5
-17 -2 -84 26 -96 40 -3 3 -16 12 -29 19 -18 9 -25 9 -31 0 -10 -16 -55 -8
-55 10 0 11 11 15 36 15 48 0 72 21 65 57 -5 24 -2 29 21 34 19 5 30 2 39 -11
8 -10 17 -16 20 -12 4 4 13 2 19 -3 9 -8 14 -4 19 14 8 33 61 50 93 30 33 -20
61 -17 74 9 7 12 18 27 25 32 6 6 17 27 23 47 14 42 34 62 65 63 14 0 22 7 24
23 3 19 -1 22 -32 22 -40 0 -74 -15 -94 -43 -21 -28 -35 -9 -28 39 7 52 3 55
-83 70 -58 10 -64 9 -69 -8 -2 -10 -13 -18 -23 -18 -25 0 -24 20 1 27 23 6 27
23 6 23 -7 0 -21 12 -31 26 -13 20 -22 24 -41 20 -13 -4 -33 -2 -44 4 -13 7
-27 7 -46 0 -32 -12 -87 2 -118 31 -15 14 -35 19 -82 19 -35 0 -66 -4 -69 -10
-8 -13 -62 -13 -70 0 -11 17 -32 11 -38 -11 -5 -20 -7 -20 -22 -5 -9 9 -30 16
-46 16 -22 0 -32 -6 -39 -26 -7 -16 -16 -24 -28 -22 -22 4 -30 48 -8 48 18 0
22 25 5 35 -6 4 -13 -2 -16 -13 -5 -22 -43 -38 -44 -19 0 7 -4 2 -9 -10 -8
-21 -10 -21 -44 -5 -22 11 -35 24 -36 36 0 12 -5 16 -15 12 -15 -6 -29 27 -23
55 2 8 -5 14 -17 14 -11 0 -20 -7 -20 -15 0 -8 -3 -19 -6 -25 -4 -5 -9 -23
-13 -40 -4 -16 -14 -38 -23 -47 -8 -9 -17 -32 -18 -50 -2 -18 -4 -36 -4 -39
-1 -4 -14 -9 -30 -11 -17 -2 -29 -1 -28 3 1 3 -14 24 -34 46 -44 48 -72 100
-65 119 3 7 -4 18 -14 24 -11 6 -20 15 -20 20 0 13 46 19 218 28 121 6 156 12
169 25 23 22 1 47 -41 47 -17 0 -41 6 -52 14 -14 10 -63 17 -148 22 -111 6
-126 9 -120 23 33 79 57 178 47 196 -15 27 -3 65 22 71 13 3 55 1 94 -5 111
-17 148 -15 156 10 8 25 -33 66 -74 75 -64 13 -107 27 -123 41 -16 14 -15 18
9 54 20 30 23 42 14 53 -18 21 -3 43 45 65 24 12 44 24 44 29 0 11 -71 49
-109 57 -20 4 -29 10 -22 14 15 10 71 1 71 -10 0 -5 13 -9 29 -9 16 0 68 -11
115 -25 47 -14 96 -25 109 -25 25 1 64 26 54 36 -14 15 -105 75 -160 106 -48
27 -57 37 -54 55 3 15 -2 24 -12 28 -9 3 -21 15 -26 27 -6 13 -21 28 -33 34
-13 6 -29 17 -35 23 -6 6 -21 11 -33 11 -27 0 -46 22 -38 44 5 13 14 15 40 10
35 -6 49 11 19 22 -20 8 -19 31 1 42 15 8 15 10 0 15 -9 4 -16 2 -16 -3 0 -6
-9 -10 -19 -10 -11 0 -23 -9 -26 -20 -7 -21 -37 -26 -82 -14 -36 10 -27 23 18
26 30 2 45 9 53 23 6 11 15 23 21 27 5 4 -15 4 -46 1 -43 -4 -59 -2 -71 11 -9
9 -26 16 -37 16 -12 0 -42 13 -69 30 -61 38 -69 19 -13 -32 22 -21 41 -41 41
-43 0 -3 -15 -5 -34 -5 -23 0 -38 7 -47 20 -10 14 -31 23 -67 29 -62 10 -71
16 -51 37 13 12 20 13 43 3 22 -11 29 -10 43 3 14 15 14 17 -3 26 -11 5 -39
13 -63 17 -24 4 -59 16 -78 28 -25 14 -52 20 -94 20 -55 -1 -73 7 -49 22 6 3
10 13 10 22 0 9 14 29 32 45 l32 28 -37 0 c-36 0 -56 13 -37 25 20 12 -2 26
-32 20 -21 -5 -35 -2 -48 10 -11 10 -26 15 -36 11 -11 -4 -22 1 -31 14 -11 16
-25 20 -69 20 -41 0 -59 5 -74 20 -11 11 -24 20 -29 20 -5 0 -15 7 -22 17 -11
13 -11 17 -1 20 25 9 10 20 -44 33 -30 7 -59 21 -64 29 -4 9 -40 25 -80 36
-73 20 -125 55 -82 55 11 0 24 5 27 10 4 6 20 -3 37 -21 25 -25 38 -30 65 -27
26 3 33 0 33 -13 0 -20 20 -29 60 -29 45 0 45 18 -1 30 -61 17 -79 31 -79 62
0 16 1 28 3 28 1 0 20 -9 41 -19 58 -30 84 -11 50 37 -13 19 -23 22 -62 19
-26 -2 -55 -7 -65 -12 -19 -8 -44 7 -50 33 -2 9 -3 7 -2 -5 1 -13 -4 -31 -11
-40 -12 -16 -13 -13 -14 22 0 23 -4 45 -9 50 -5 6 -11 23 -13 40 -2 24 -9 30
-36 36 -18 4 -43 16 -56 28 -12 11 -30 21 -38 21 -9 0 -19 9 -23 19 -3 11 -15
23 -26 26 -25 8 -25 25 1 32 30 8 24 29 -16 53 -25 16 -44 21 -66 16 -22 -4
-45 0 -74 14 -34 17 -41 25 -36 42 5 20 2 21 -38 15 -31 -4 -47 -2 -54 8 -9
12 -13 12 -23 0z m427 -295 c0 -23 -17 -25 -42 -6 -21 16 -13 26 19 26 16 0
23 -6 23 -20z m172 -308 c2 -4 19 -17 38 -30 44 -28 20 -29 -37 -1 -52 25 -63
39 -29 39 13 0 26 -3 28 -8z m308 -182 c0 -5 -7 -10 -16 -10 -8 0 -12 5 -9 10
3 6 10 10 16 10 5 0 9 -4 9 -10z m537 -356 c32 7 105 -14 111 -33 3 -9 -10
-10 -50 -5 -58 7 -133 36 -122 47 4 4 13 2 20 -4 7 -6 26 -8 41 -5z m158 -78
c27 -10 41 -21 43 -35 4 -28 -34 -29 -43 -1 -7 21 -39 27 -50 10 -4 -7 -13 -6
-26 1 -20 10 -20 11 -2 24 23 18 29 18 78 1z m-172 -16 c-13 -5 -23 -16 -23
-25 0 -9 -9 -15 -25 -15 -14 0 -25 4 -25 9 0 20 33 41 63 40 29 0 30 -1 10 -9z
m-175 -17 c-10 -2 -26 -2 -35 0 -10 3 -2 5 17 5 19 0 27 -2 18 -5z m246 -12
c3 -4 24 -11 46 -15 22 -3 40 -11 40 -17 0 -7 -12 -9 -32 -5 -18 4 -50 6 -70
6 -37 -1 -54 12 -43 30 8 12 52 13 59 1z m203 -7 c-3 -3 -12 -4 -19 -1 -8 3
-5 6 6 6 11 1 17 -2 13 -5z m93 -89 c8 -9 8 -15 2 -15 -18 0 -42 12 -42 21 0
14 26 10 40 -6z m-208 -107 c-9 -9 -15 -9 -24 0 -9 9 -7 12 12 12 19 0 21 -3
12 -12z m76 -15 c-10 -2 -26 -2 -35 0 -10 3 -2 5 17 5 19 0 27 -2 18 -5z
m3142 -1923 c0 -5 -2 -10 -4 -10 -3 0 -8 5 -11 10 -3 6 -1 10 4 10 6 0 11 -4
11 -10z m750 -250 c0 -5 -4 -10 -9 -10 -6 0 -13 5 -16 10 -3 6 1 10 9 10 9 0
16 -4 16 -10z m965 -279 c3 -5 1 -12 -5 -16 -5 -3 -10 1 -10 9 0 18 6 21 15 7z
m-825 -936 c0 -8 -4 -15 -10 -15 -5 0 -10 7 -10 15 0 8 5 15 10 15 6 0 10 -7
10 -15z m-5370 -425 c0 -5 -4 -10 -10 -10 -5 0 -10 5 -10 10 0 6 5 10 10 10 6
0 10 -4 10 -10z m5233 -227 c7 -35 -7 -51 -28 -33 -18 15 -19 26 -2 45 18 21
24 18 30 -12z m-213 -309 c0 -16 -16 -19 -25 -4 -8 13 4 32 16 25 5 -4 9 -13
9 -21z m-80 -34 c0 -5 -4 -10 -10 -10 -5 0 -10 5 -10 10 0 6 5 10 10 10 6 0
10 -4 10 -10z m-1503 -122 c-3 -8 -6 -5 -6 6 -1 11 2 17 5 13 3 -3 4 -12 1
-19z m1509 -36 c-22 -5 -30 3 -21 18 5 8 11 7 22 -2 15 -12 14 -13 -1 -16z
m-1336 -54 l-1 -43 -14 40 c-18 49 -18 45 0 45 11 0 15 -11 15 -42z m117 -5
c-3 -10 -5 -2 -5 17 0 19 2 27 5 18 2 -10 2 -26 0 -35z"/>
<path d="M5003 6143 c-16 -6 -17 -33 -3 -33 11 0 26 28 19 34 -2 2 -10 1 -16
-1z"/>
<path d="M650 6114 c0 -17 22 -14 28 4 2 7 -3 12 -12 12 -9 0 -16 -7 -16 -16z"/>
<path d="M3815 6110 c-3 -5 -1 -10 4 -10 6 0 11 5 11 10 0 6 -2 10 -4 10 -3 0
-8 -4 -11 -10z"/>
<path d="M4660 6110 c0 -5 5 -10 10 -10 6 0 10 5 10 10 0 6 -4 10 -10 10 -5 0
-10 -4 -10 -10z"/>
<path d="M3747 6079 c7 -7 9 -32 7 -63 -4 -42 -1 -56 16 -76 l21 -25 -4 52
c-7 88 33 94 48 8 9 -45 24 -79 32 -71 9 8 14 88 8 114 -4 18 -10 22 -25 17
-12 -4 -20 -2 -20 4 0 6 -11 11 -25 11 -14 0 -29 8 -35 20 -6 11 -16 20 -22
20 -9 0 -9 -3 -1 -11z"/>
<path d="M4990 6004 c0 -9 5 -14 12 -12 18 6 21 28 4 28 -9 0 -16 -7 -16 -16z"/>
<path d="M5080 5989 c-6 -10 -10 -20 -10 -22 0 -9 50 6 60 18 8 9 4 14 -15 17
-18 4 -29 0 -35 -13z"/>
<path d="M5233 5973 c-18 -6 -16 -23 1 -23 17 0 30 16 19 23 -5 2 -14 2 -20 0z"/>
<path d="M4994 5935 c-4 -10 -1 -21 7 -26 23 -14 31 -10 27 13 -4 27 -26 35
-34 13z"/>
<path d="M4803 5928 c-12 -6 -23 -19 -26 -29 -3 -10 -13 -22 -24 -25 -30 -11
-53 -36 -53 -57 0 -11 -7 -29 -17 -39 -11 -12 -12 -18 -4 -18 15 0 121 105
121 119 0 5 7 17 16 25 21 22 14 36 -13 24z"/>
<path d="M3645 5900 c-3 -5 1 -10 10 -10 9 0 13 5 10 10 -3 6 -8 10 -10 10 -2
0 -7 -4 -10 -10z"/>
<path d="M4898 5881 c-15 -9 -37 -29 -48 -44 -19 -24 -19 -28 -6 -33 26 -10
44 3 60 41 8 19 20 35 25 35 6 0 11 5 11 10 0 14 -10 12 -42 -9z"/>
<path d="M794 5855 c-12 -29 4 -48 34 -40 15 4 35 7 44 7 26 -1 34 19 13 35
-26 18 -84 17 -91 -2z"/>
<path d="M5011 5854 c0 -11 3 -14 6 -6 3 7 2 16 -1 19 -3 4 -6 -2 -5 -13z"/>
<path d="M5060 5820 c0 -5 7 -10 15 -10 8 0 15 5 15 10 0 6 -7 10 -15 10 -8 0
-15 -4 -15 -10z"/>
<path d="M4973 5772 c-22 -21 -43 -47 -48 -58 -8 -19 -8 -19 -13 1 -2 10 1 21
7 23 14 5 15 42 1 42 -17 0 -70 -43 -70 -56 0 -7 14 -17 30 -23 17 -5 30 -15
30 -20 0 -6 5 -11 10 -11 6 0 10 6 10 13 0 7 27 31 60 52 37 24 60 46 60 57 0
30 -35 21 -77 -20z"/>
<path d="M1315 5680 c3 -5 8 -10 11 -10 2 0 4 5 4 10 0 6 -5 10 -11 10 -5 0
-7 -4 -4 -10z"/>
<path d="M1060 5670 c0 -5 5 -10 10 -10 6 0 10 5 10 10 0 6 -4 10 -10 10 -5 0
-10 -4 -10 -10z"/>
<path d="M4823 5665 c-28 -32 -4 -48 32 -22 18 14 13 37 -8 37 -7 -1 -18 -7
-24 -15z"/>
<path d="M4895 5645 c-3 -8 -7 -22 -10 -31 -4 -11 1 -15 18 -12 27 4 39 58 12
58 -8 0 -18 -7 -20 -15z"/>
<path d="M1840 5636 c0 -17 26 -39 40 -34 6 2 0 13 -14 26 -18 15 -26 18 -26
8z"/>
<path d="M1147 5623 c-14 -13 -6 -23 19 -23 22 0 25 2 14 15 -14 16 -23 19
-33 8z"/>
<path d="M1278 5623 c6 -2 18 -2 25 0 6 3 1 5 -13 5 -14 0 -19 -2 -12 -5z"/>
<path d="M4771 5596 c-17 -12 -31 -29 -31 -38 0 -10 -5 -18 -11 -18 -15 0 -79
-70 -79 -86 0 -35 39 -9 110 73 16 19 32 28 45 25 12 -2 31 5 43 15 l21 18
-34 16 c-33 15 -36 15 -64 -5z"/>
<path d="M1186 5556 c-8 -32 8 -72 31 -79 10 -4 25 -10 33 -15 48 -29 160 -53
160 -34 0 6 -7 17 -15 26 -8 8 -15 22 -15 31 0 12 -8 16 -27 15 -49 -4 -54 -1
-48 23 6 21 1 26 -37 40 -59 23 -75 21 -82 -7z m84 -46 c0 -14 -28 -19 -33 -5
-3 7 -3 15 0 18 7 7 33 -3 33 -13z"/>
<path d="M5168 5562 c-7 -10 -21 -21 -30 -25 -22 -8 -24 -37 -3 -37 8 0 15 5
15 10 0 6 11 20 25 32 14 12 25 25 25 30 0 14 -18 9 -32 -10z"/>
<path d="M1079 5519 c11 -12 25 -18 32 -14 8 6 4 12 -12 21 -35 19 -42 17 -20
-7z"/>
<path d="M5300 5510 c0 -5 4 -10 9 -10 6 0 13 5 16 10 3 6 -1 10 -9 10 -9 0
-16 -4 -16 -10z"/>
<path d="M4720 5429 c0 -18 2 -19 15 -9 8 7 15 16 15 21 0 5 -7 9 -15 9 -9 0
-15 -9 -15 -21z"/>
<path d="M4647 5355 c-15 -19 -34 -35 -42 -35 -9 0 -15 -10 -15 -25 0 -17 -9
-29 -30 -40 -29 -15 -40 -35 -19 -35 5 0 27 13 47 29 20 16 55 33 77 38 22 5
40 14 39 21 -1 7 -2 28 -2 47 -2 45 -19 45 -55 0z"/>
<path d="M1537 5299 c7 -7 15 -10 18 -7 3 3 -2 9 -12 12 -14 6 -15 5 -6 -5z"/>
<path d="M4780 5210 c0 -5 5 -10 11 -10 5 0 7 5 4 10 -3 6 -8 10 -11 10 -2 0
-4 -4 -4 -10z"/>
<path d="M1921 5170 c19 -10 41 -26 48 -34 8 -9 25 -16 39 -16 25 0 26 1 7 14
-42 29 -96 56 -113 56 -10 -1 -2 -9 19 -20z"/>
<path d="M2125 4970 c3 -5 10 -10 16 -10 5 0 9 5 9 10 0 6 -7 10 -16 10 -8 0
-12 -4 -9 -10z"/>
<path d="M5965 4850 c-33 -5 -100 -13 -150 -19 -149 -19 -204 -29 -258 -46
-163 -54 -227 -79 -227 -87 0 -6 6 -8 14 -5 8 3 31 9 50 13 20 3 36 10 36 15
0 5 17 9 38 8 l37 -1 -30 -9 c-16 -6 -52 -21 -80 -33 -27 -13 -74 -34 -102
-46 -29 -13 -53 -27 -53 -31 0 -14 48 -15 96 -3 27 8 81 21 119 30 39 9 79 20
90 24 28 11 103 28 240 54 109 21 260 38 380 42 205 7 243 12 255 34 15 28
-11 48 -72 54 -102 10 -324 14 -383 6z"/>
<path d="M5770 4394 c-8 -1 -46 -6 -83 -9 -61 -6 -66 -8 -50 -21 16 -12 14
-13 -20 -14 -61 0 -172 -38 -198 -67 l-24 -26 95 7 c52 3 208 9 345 12 223 6
270 4 435 -16 270 -33 263 -33 284 -17 18 13 18 15 1 40 -9 15 -26 27 -36 27
-11 0 -27 4 -37 10 -19 10 -208 46 -292 55 -30 3 -91 10 -135 15 -76 8 -253
11 -285 4z"/>
<path d="M5627 3943 c-4 -6 -32 -14 -62 -18 -71 -8 -73 -29 -5 -44 28 -6 65
-11 83 -11 91 0 664 -134 809 -189 32 -12 58 4 58 34 0 19 -10 30 -42 47 -88
46 -282 110 -420 138 -54 11 -110 25 -125 31 -39 15 -288 25 -296 12z"/>
<path d="M2200 3820 c-11 -7 -6 -10 20 -10 26 0 31 3 20 10 -8 5 -17 10 -20
10 -3 0 -12 -5 -20 -10z"/>
<path d="M2007 3804 c-11 -11 -8 -64 3 -64 14 0 24 50 13 61 -5 5 -12 6 -16 3z"/>
<path d="M1986 3671 c-4 -7 -5 -15 -2 -18 9 -9 19 4 14 18 -4 11 -6 11 -12 0z"/>
<path d="M3090 3330 c0 -5 7 -7 15 -4 8 4 15 8 15 10 0 2 -7 4 -15 4 -8 0 -15
-4 -15 -10z"/>
<path d="M5125 2920 c-8 -13 9 -20 24 -11 10 6 9 10 -3 14 -8 3 -18 2 -21 -3z"/>
<path d="M5910 2566 c0 -9 7 -16 16 -16 17 0 14 22 -4 28 -7 2 -12 -3 -12 -12z"/>
<path d="M6957 2484 c-8 -8 1 -24 14 -24 5 0 9 7 9 15 0 15 -12 20 -23 9z"/>
</g>
</svg>
